<?xml version="1.0" encoding="UTF-8"?>
<svg width="96" height="96" viewBox="0 0 96 96" fill="none" xmlns="http://www.w3.org/2000/svg" role="img" aria-labelledby="title desc">
  <title id="title">Aurelia Boutique Logo</title>
  <desc id="desc">Monogram A inside rounded square with subtle gradient</desc>
  <defs>
    <linearGradient id="g" x1="0" y1="0" x2="96" y2="96" gradientUnits="userSpaceOnUse">
      <stop stop-color="#e8d6bc"/>
      <stop offset="1" stop-color="#c3a275"/>
    </linearGradient>
    <linearGradient id="i" x1="0" y1="0" x2="0" y2="96" gradientUnits="userSpaceOnUse">
      <stop stop-color="#1b2028"/>
      <stop offset="1" stop-color="#0e1115"/>
    </linearGradient>
    <filter id="s" x="-20%" y="-20%" width="140%" height="140%">
      <feDropShadow dx="0" dy="10" stdDeviation="10" flood-color="#000" flood-opacity=".4"/>
    </filter>
  </defs>
  <rect x="6" y="6" width="84" height="84" rx="22" fill="url(#i)" stroke="rgba(255,255,255,.12)"/>
  <g filter="url(#s)">
    <path d="M48 20c-12.7 0-23 10.3-23 23s10.3 23 23 23 23-10.3 23-23S60.7 20 48 20Zm0 8c8.3 0 15 6.7 15 15s-6.7 15-15 15-15-6.7-15-15 6.7-15 15-15Z" fill="url(#g)"/>
    <path d="M36 62l12-32 12 32m-5-12H41" stroke="url(#g)" stroke-width="4" stroke-linecap="round" stroke-linejoin="round"/>
  </g>
</svg>
